# xmcd CD database file
#
# Track frame offsets:
#	150
#	13018
#	33234
#	45965
#	57180
#	72564
#	86147
#	98869
#	111726
#	130182
#	148481
#	161498
#	172741
#	186148
#	198636
#	211109
#	222700
#	235411
#	251236
#	263503
#	283130
#	295919
#	307276
#	320445
#	338122
#
# Disc length: 4686 seconds
#
# Revision: 0
# Processed by: cddbd v1.5.2PL0 Copyright (c) Steve Scherf et al.
# Submitted via: CDex 1.51
#
DISCID=8e124c19
DTITLE=Steven J. Towers - Country Favourites
DYEAR=1900
DGENRE=Country
TTITLE0=01. All my Ex`s live in Texas
TTITLE1=02. Back Home again
TTITLE2=03. Cotton Fields
TTITLE3=04. I`m gonna be a country Girl again
TTITLE4=05. Crystal Chandeliers
TTITLE5=06. Heartaches by the number
TTITLE6=07. I fall to Pieces
TTITLE7=08. Legend in my Time
TTITLE8=09. Lyin Eyes
TTITLE9=10. Mexican Girl
TTITLE10=11. Move it on over
TTITLE11=12. On the Road again
TTITLE12=13. Saturday Night at the Twist and Shout
TTITLE13=14. Sea of Heartbreak
TTITLE14=15. Take these chains from my Heart
TTITLE15=16. Tennessee Waltz
TTITLE16=17. Tequila Sunrise
TTITLE17=18. The Gambler
TTITLE18=19. Wasted Days and Wasted Nights
TTITLE19=20. Coward of the County
TTITLE20=21. Take this job and Shove it
TTITLE21=22. On the Road again
TTITLE22=23. Luckenbach Texas
TTITLE23=24. The River
TTITLE24=25. Petty Woman
EXTD=
EXTT0=
EXTT1=
EXTT2=
EXTT3=
EXTT4=
EXTT5=
EXTT6=
EXTT7=
EXTT8=
EXTT9=
EXTT10=
EXTT11=
EXTT12=
EXTT13=
EXTT14=
EXTT15=
EXTT16=
EXTT17=
EXTT18=
EXTT19=
EXTT20=
EXTT21=
EXTT22=
EXTT23=
EXTT24=
PLAYORDER=
